<svg version="1.1" xmlns="http://www.w3.org/2000/svg" xmlns:xlink="http://www.w3.org/1999/xlink" style="" xml:space="preserve" width="486.805" height="486.805"><rect id="backgroundrect" width="100%" height="100%" x="0" y="0" fill="none" stroke="none"/>
















<g class="currentLayer" style=""><title>Layer 1</title><g id="svg_3">
</g><g id="svg_4">
</g><g id="svg_5">
</g><g id="svg_6">
</g><g id="svg_7">
</g><g id="svg_8">
</g><g id="svg_9">
</g><g id="svg_10">
</g><g id="svg_11">
</g><g id="svg_12">
</g><g id="svg_13">
</g><g id="svg_14">
</g><g id="svg_15">
</g><g id="svg_16">
</g><g id="svg_17">
</g><rect fill="#990000" stroke="#990000" style="color: rgb(0, 0, 0);" stroke-width="2" stroke-linejoin="round" stroke-dashoffset="" fill-rule="nonzero" id="svg_18" x="16" y="38" width="92" height="240"/><rect fill="#990000" stroke="#990000" style="color: rgb(0, 0, 0);" stroke-width="2" stroke-linejoin="round" stroke-dashoffset="" fill-rule="nonzero" id="svg_20" x="126" y="29" width="296" height="247"/><rect fill="#990000" stroke="#990000" style="color: rgb(0, 0, 0);" stroke-width="2" stroke-linejoin="round" stroke-dashoffset="" fill-rule="nonzero" id="svg_22" x="228" y="258" width="65" height="198"/><rect fill="#990000" stroke="#990000" style="color: rgb(0, 0, 0);" stroke-width="2" stroke-linejoin="round" stroke-dashoffset="" fill-rule="nonzero" id="svg_24" x="169.36363649368286" y="218.7272720336914" width="110" height="111" class="" transform="rotate(-46.1214, 224.364, 274.227)"/><rect fill="#990000" stroke="#990000" style="color: rgb(0, 0, 0);" stroke-width="2" stroke-linejoin="round" stroke-dashoffset="" fill-rule="nonzero" id="svg_26" x="386.66347551345825" y="47.80260671816583" width="64" height="250.46006405353546" class="" transform="rotate(-8.75561, 418.663, 173.033)"/><rect fill="#990000" stroke="#990000" style="color: rgb(0, 0, 0);" stroke-width="2" stroke-linejoin="round" stroke-dashoffset="" fill-rule="nonzero" id="svg_28" x="261" y="247" width="168" height="61"/><g id="svg_1" class="selected">
	<path d="M485.9,241.402l-26.8-167c-5.2-41.9-34.5-66-80.4-66H243.6h-6.8h-65.9c-19.2,0-36.9,8.3-49.4,21.6   c-4.5-5.5-11.4-8.9-19-8.9H24.7c-13.6,0-24.7,11.1-24.7,24.7v228.4c0,13.6,11.1,24.7,24.7,24.7h77.9c9,0,17-4.9,21.3-12.2l2.9,0.7   c4.4,1.3,80.8,25,80.8,90.7v84.9c0,5.2,3.4,9.9,8.4,11.4c0.9,0.3,12.9,4,28.3,4c13.3,0,29.1-2.7,42.5-12.6   c18.4-13.5,27.7-36.5,27.7-68.4v-75.8h32.4h56.9h15.8c15.6,0,31-5.8,43.3-16.2C480.9,290.002,489.8,265.402,485.9,241.402z    M103.2,274.302c0,0.4-0.3,0.7-0.7,0.7H24.7c-0.4,0-0.7-0.3-0.7-0.7v-228.4c0-0.4,0.3-0.7,0.7-0.7h77.9c0.4,0,0.7,0.3,0.7,0.7   v228.4H103.2z M447.3,287.202c-7.9,6.8-17.8,10.5-27.7,10.5h-15.8h-56.9h-44.5c-6.6,0-12,5.4-12,12v87.8c0,23.8-6,40.3-17.8,49   c-13,9.6-30.8,8.6-41.1,7v-75.3c0-35.6-17.3-66.7-49.9-89.9c-23.9-16.9-47.6-23.7-48.6-24c-0.2,0-0.3-0.1-0.5-0.1l-5.2-1.2v-191.5   c0.2-0.7,0.4-1.4,0.5-2.1c3.3-21,21.8-36.9,43.1-36.9h65.9h6.8h135.1c33.9,0,52.9,15.2,56.6,45.1c0,0.2,0,0.3,0.1,0.4l26.9,167.1   C464.8,261.002,459,277.102,447.3,287.202z" id="svg_2"/>
</g></g></svg>