<svg width="486.805" height="486.805" xmlns="http://www.w3.org/2000/svg">
 <defs>
  <filter height="200%" width="200%" y="-50%" x="-50%" id="svg_19_blur">
   <feGaussianBlur stdDeviation="10" in="SourceGraphic"/>
  </filter>
 </defs>
 <g>
  <title>background</title>
  <rect fill="none" id="canvas_background" height="402" width="582" y="-1" x="-1"/>
 </g>
 <g>
  <title>Layer 1</title>
  <g id="svg_1">
   <path id="svg_2" d="m485.89999,241.40199l-26.80002,-167c-5.19998,-41.9 -34.5,-66 -80.39999,-66l-135.09998,0l-6.8,0l-65.90001,0c-19.2,0 -36.89999,8.3 -49.39999,21.6c-4.5,-5.5 -11.4,-8.9 -19,-8.9l-77.8,0c-13.6,0 -24.7,11.1 -24.7,24.7l0,228.40001c0,13.60001 11.1,24.69998 24.7,24.69998l77.9,0c9,0 17,-4.89999 21.3,-12.19998l2.9,0.69998c4.39999,1.30002 80.8,25 80.8,90.70001l0,84.89999c0,5.20001 3.39999,9.89999 8.39999,11.39999c0.89999,0.30002 12.89999,4 28.3,4c13.3,0 29.09999,-2.69998 42.49998,-12.59998c18.40002,-13.5 27.70001,-36.5 27.70001,-68.40002l0,-75.79999l32.40002,0l56.89999,0l15.79999,0c15.60001,0 31,-5.80002 43.30002,-16.20001c17.99997,-15.39996 26.89996,-39.99997 22.99997,-63.99998zm-382.7,32.90001c0,0.39999 -0.3,0.70001 -0.7,0.70001l-77.8,0c-0.4,0 -0.7,-0.30002 -0.7,-0.70001l0,-228.39999c0,-0.4 0.3,-0.7 0.7,-0.7l77.9,0c0.4,0 0.7,0.3 0.7,0.7l0,228.39999l-0.10001,0zm344.09999,12.89999c-7.89999,6.80002 -17.79999,10.5 -27.70001,10.5l-15.79999,0l-56.89999,0l-44.5,0c-6.60001,0 -12,5.39999 -12,12l0,87.80002c0,23.79999 -6,40.29999 -17.80002,49c-13,9.59998 -30.79999,8.59998 -41.09999,7l0,-75.30002c0,-35.60001 -17.29999,-66.69998 -49.89999,-89.89999c-23.89999,-16.90002 -47.60001,-23.70001 -48.60001,-24c-0.2,0 -0.29999,-0.10001 -0.5,-0.10001l-5.2,-1.20001l0,-191.49999c0.2,-0.7 0.4,-1.4 0.5,-2.1c3.3,-21 21.8,-36.9 43.10001,-36.9l65.89999,0l6.8,0l135.09999,0c33.90002,0 52.90002,15.2 56.60001,45.1c0,0.2 0,0.3 0.10001,0.4l26.89999,167.10001c2.5,15.90001 -3.29999,31.99998 -15,42.09999z"/>
  </g>
  <g id="svg_3"/>
  <g id="svg_4"/>
  <g id="svg_5"/>
  <g id="svg_6"/>
  <g id="svg_7"/>
  <g id="svg_8"/>
  <g id="svg_9"/>
  <g id="svg_10"/>
  <g id="svg_11"/>
  <g id="svg_12"/>
  <g id="svg_13"/>
  <g id="svg_14"/>
  <g id="svg_15"/>
  <g id="svg_16"/>
  <g id="svg_17"/>
  <g filter="url(#svg_19_blur)" id="svg_19">
   <path fill="#7f0000" id="svg_18" d="m485.89999,241.40199l-26.80002,-167c-5.19998,-41.9 -34.5,-66 -80.39999,-66l-135.09998,0l-6.8,0l-65.90001,0c-19.2,0 -36.89999,8.3 -49.39999,21.6c-4.5,-5.5 -11.4,-8.9 -19,-8.9l-77.8,0c-13.6,0 -24.7,11.1 -24.7,24.7l0,228.40001c0,13.60001 11.1,24.69998 24.7,24.69998l77.9,0c9,0 17,-4.89999 21.3,-12.19998l2.9,0.69998c4.39999,1.30002 80.8,25 80.8,90.70001l0,84.89999c0,5.20001 3.39999,9.89999 8.39999,11.39999c0.89999,0.30002 12.89999,4 28.3,4c13.3,0 29.09999,-2.69998 42.49998,-12.59998c18.40002,-13.5 27.70001,-36.5 27.70001,-68.40002l0,-75.79999l32.40002,0l56.89999,0l15.79999,0c15.60001,0 31,-5.80002 43.30002,-16.20001c17.99997,-15.39996 26.89996,-39.99997 22.99997,-63.99998zm-382.7,32.90001c0,0.39999 -0.3,0.70001 -0.7,0.70001l-77.8,0c-0.4,0 -0.7,-0.30002 -0.7,-0.70001l0,-228.39999c0,-0.4 0.3,-0.7 0.7,-0.7l77.9,0c0.4,0 0.7,0.3 0.7,0.7l0,228.39999l-0.10001,0zm344.09999,12.89999c-7.89999,6.80002 -17.79999,10.5 -27.70001,10.5l-15.79999,0l-56.89999,0l-44.5,0c-6.60001,0 -12,5.39999 -12,12l0,87.80002c0,23.79999 -6,40.29999 -17.80002,49c-13,9.59998 -30.79999,8.59998 -41.09999,7l0,-75.30002c0,-35.60001 -17.29999,-66.69998 -49.89999,-89.89999c-23.89999,-16.90002 -47.60001,-23.70001 -48.60001,-24c-0.2,0 -0.29999,-0.10001 -0.5,-0.10001l-5.2,-1.20001l0,-191.49999c0.2,-0.7 0.4,-1.4 0.5,-2.1c3.3,-21 21.8,-36.9 43.10001,-36.9l65.89999,0l6.8,0l135.09999,0c33.90002,0 52.90002,15.2 56.60001,45.1c0,0.2 0,0.3 0.10001,0.4l26.89999,167.10001c2.5,15.90001 -3.29999,31.99998 -15,42.09999z"/>
  </g>
 </g>
</svg>