<svg version="1.1" xmlns="http://www.w3.org/2000/svg" xmlns:xlink="http://www.w3.org/1999/xlink" style="" xml:space="preserve" width="486.9259948730469" height="486.9259948730469"><rect id="backgroundrect" width="100%" height="100%" x="0" y="0" fill="none" stroke="none"/>
















<g class="currentLayer" style=""><title>Layer 1</title><g id="svg_3">
</g><g id="svg_4">
</g><g id="svg_5">
</g><g id="svg_6">
</g><g id="svg_7">
</g><g id="svg_8">
</g><g id="svg_9">
</g><g id="svg_10">
</g><g id="svg_11">
</g><g id="svg_12">
</g><g id="svg_13">
</g><g id="svg_14">
</g><g id="svg_15">
</g><g id="svg_16">
</g><g id="svg_17">
</g><rect fill="#04b804" stroke="#04b804" style="color: rgb(0, 0, 0);" stroke-width="2" stroke-linejoin="round" stroke-dashoffset="" fill-rule="nonzero" id="svg_24" x="16" y="203" width="92" height="244" class="" fill-opacity="1" stroke-opacity="1"/><path fill="#04b804" fill-opacity="1" stroke="#04b804" stroke-opacity="1" style="color: rgb(4, 184, 4);" stroke-width="2" stroke-dasharray="none" stroke-linejoin="round" stroke-linecap="butt" stroke-dashoffset="" fill-rule="nonzero" opacity="1" marker-start="" marker-mid="" marker-end="" id="svg_34" d="M118.86595642566682,212.50232470035553 "/><path fill="#04b804" fill-opacity="1" stroke="#04b804" stroke-opacity="1" style="color: rgb(4, 184, 4);" stroke-width="2" stroke-dasharray="none" stroke-linejoin="round" stroke-linecap="butt" stroke-dashoffset="" fill-rule="nonzero" opacity="1" marker-start="" marker-mid="" marker-end="" id="svg_36" d="M118.86595642566682,213.41141557693481 "/><rect fill="#04b804" stroke="#04b804" style="color: rgb(4, 184, 4);" stroke-width="2" stroke-linejoin="round" stroke-dashoffset="" fill-rule="nonzero" id="svg_18" x="227" y="29" width="65" height="161"/><rect fill="#04b804" stroke="#04b804" style="color: rgb(4, 184, 4);" stroke-width="2" stroke-linejoin="round" stroke-dashoffset="" fill-rule="nonzero" id="svg_20" x="124" y="215" width="309" height="241"/><rect fill="#04b804" stroke="#04b804" style="color: rgb(4, 184, 4);" stroke-width="2" stroke-linejoin="round" stroke-dashoffset="" fill-rule="nonzero" id="svg_22" x="173.36363220214844" y="151" width="90" height="110" class="" transform="rotate(46.8389, 218.364, 206)"/><rect fill="#04b804" stroke="#04b804" style="color: rgb(4, 184, 4);" stroke-width="2" stroke-linejoin="round" stroke-dashoffset="" fill-rule="nonzero" id="svg_25" x="262" y="183" width="185" height="53"/><rect fill="#04b804" stroke="#04b804" style="color: rgb(4, 184, 4);" stroke-width="2" stroke-linejoin="round" stroke-dashoffset="" fill-rule="nonzero" id="svg_27" x="399.998046875" y="193.87501525878906" width="55" height="257.70556640625" class="" transform="rotate(7.4763, 427.498, 322.728)"/><g id="svg_1" class="">
	<path d="M462.8,181.564c-12.3-10.5-27.7-16.2-43.3-16.2h-15.8h-56.9h-32.4v-75.9c0-31.9-9.3-54.9-27.7-68.4   c-29.1-21.4-69.2-9.2-70.9-8.6c-5,1.6-8.4,6.2-8.4,11.4v84.9c0,27.7-13.2,51.2-39.3,69.9c-19.5,14-39.4,20.1-41.5,20.8l-2.9,0.7   c-4.3-7.3-12.2-12.2-21.3-12.2H24.7c-13.6,0-24.7,11.1-24.7,24.7v228.4c0,13.6,11.1,24.7,24.7,24.7h77.9c7.6,0,14.5-3.5,19-8.9   c12.5,13.3,30.2,21.6,49.4,21.6h65.9h6.8h135.1c45.9,0,75.2-24,80.4-66l26.9-166.9C489.8,221.564,480.9,196.964,462.8,181.564z    M103.2,441.064c0,0.4-0.3,0.7-0.7,0.7H24.7c-0.4,0-0.7-0.3-0.7-0.7v-228.4c0-0.4,0.3-0.7,0.7-0.7h77.9c0.4,0,0.7,0.3,0.7,0.7   v228.4H103.2z M462.2,241.764l-26.8,167.2c0,0.1,0,0.3-0.1,0.5c-3.7,29.9-22.7,45.1-56.6,45.1H243.6h-6.8h-65.9   c-21.3,0-39.8-15.9-43.1-36.9c-0.1-0.7-0.3-1.4-0.5-2.1v-191.6l5.2-1.2c0.2,0,0.3-0.1,0.5-0.1c1-0.3,24.7-7,48.6-24   c32.7-23.2,49.9-54.3,49.9-89.9v-75.3c10.4-1.7,28.2-2.6,41.1,7c11.8,8.7,17.8,25.2,17.8,49v87.8c0,6.6,5.4,12,12,12h44.4h56.9   h15.8c9.9,0,19.8,3.7,27.7,10.5C459,209.864,464.8,225.964,462.2,241.764z" id="svg_2"/>
</g></g></svg>