<svg width="486.926" height="486.926" xmlns="http://www.w3.org/2000/svg">
 <defs>
  <filter height="200%" width="200%" y="-50%" x="-50%" id="svg_19_blur">
   <feGaussianBlur stdDeviation="10" in="SourceGraphic"/>
  </filter>
 </defs>
 <g>
  <title>background</title>
  <rect fill="none" id="canvas_background" height="402" width="582" y="-1" x="-1"/>
 </g>
 <g>
  <title>Layer 1</title>
  <g id="svg_1">
   <path id="svg_2" d="m462.79999,181.564c-12.29999,-10.5 -27.70001,-16.20001 -43.29999,-16.20001l-15.80002,0l-56.89999,0l-32.39999,0l0,-75.89999c0,-31.9 -9.30002,-54.9 -27.70001,-68.4c-29.10001,-21.4 -69.2,-9.2 -70.90001,-8.6c-5,1.6 -8.39999,6.2 -8.39999,11.4l0,84.9c0,27.7 -13.2,51.2 -39.3,69.89999c-19.5,14 -39.39999,20.10001 -41.49999,20.8l-2.9,0.7c-4.3,-7.3 -12.2,-12.2 -21.3,-12.2l-77.69998,0c-13.6,0 -24.7,11.10001 -24.7,24.7l0,228.40001c0,13.60001 11.1,24.69998 24.7,24.69998l77.9,0c7.6,0 14.5,-3.5 19,-8.89999c12.50001,13.30002 30.2,21.60001 49.4,21.60001l65.90001,0l6.8,0l135.10001,0c45.89999,0 75.19998,-24 80.39999,-66l26.89999,-166.89999c3.69998,-24 -5.20001,-48.59999 -23.30002,-64zm-359.59999,259.5c0,0.39999 -0.3,0.70001 -0.7,0.70001l-77.8,0c-0.4,0 -0.7,-0.30002 -0.7,-0.70001l0,-228.39999c0,-0.39999 0.3,-0.7 0.7,-0.7l77.9,0c0.4,0 0.7,0.3 0.7,0.7l0,228.39999l-0.10001,0zm359.00002,-199.29999l-26.79999,167.19998c0,0.10001 0,0.30002 -0.10001,0.5c-3.70001,29.90002 -22.70001,45.10001 -56.60001,45.10001l-135.10001,0l-6.8,0l-65.90001,0c-21.29999,0 -39.79999,-15.89999 -43.09998,-36.89999c-0.1,-0.70001 -0.3,-1.39999 -0.5,-2.10001l0,-191.59999l5.2,-1.2c0.2,0 0.29999,-0.10001 0.5,-0.10001c1,-0.3 24.7,-7 48.59999,-24c32.7,-23.20001 49.90001,-54.3 49.90001,-89.90001l0,-75.3c10.39999,-1.7 28.2,-2.6 41.09999,7c11.79999,8.7 17.79999,25.2 17.79999,49l0,87.8c0,6.59999 5.39999,12 12,12l44.39999,0l56.90002,0l15.79999,0c9.90002,0 19.80002,3.7 27.70001,10.5c11.79999,10.10001 17.59998,26.20001 15,42.00002z"/>
  </g>
  <g id="svg_3"/>
  <g id="svg_4"/>
  <g id="svg_5"/>
  <g id="svg_6"/>
  <g id="svg_7"/>
  <g id="svg_8"/>
  <g id="svg_9"/>
  <g id="svg_10"/>
  <g id="svg_11"/>
  <g id="svg_12"/>
  <g id="svg_13"/>
  <g id="svg_14"/>
  <g id="svg_15"/>
  <g id="svg_16"/>
  <g id="svg_17"/>
  <g filter="url(#svg_19_blur)" id="svg_19">
   <path fill="#007f00" id="svg_18" d="m462.79999,181.564c-12.29999,-10.5 -27.70001,-16.20001 -43.29999,-16.20001l-15.80002,0l-56.89999,0l-32.39999,0l0,-75.89999c0,-31.9 -9.30002,-54.9 -27.70001,-68.4c-29.10001,-21.4 -69.2,-9.2 -70.90001,-8.6c-5,1.6 -8.39999,6.2 -8.39999,11.4l0,84.9c0,27.7 -13.2,51.2 -39.3,69.89999c-19.5,14 -39.39999,20.10001 -41.49999,20.8l-2.9,0.7c-4.3,-7.3 -12.2,-12.2 -21.3,-12.2l-77.69998,0c-13.6,0 -24.7,11.10001 -24.7,24.7l0,228.40001c0,13.60001 11.1,24.69998 24.7,24.69998l77.9,0c7.6,0 14.5,-3.5 19,-8.89999c12.50001,13.30002 30.2,21.60001 49.4,21.60001l65.90001,0l6.8,0l135.10001,0c45.89999,0 75.19998,-24 80.39999,-66l26.89999,-166.89999c3.69998,-24 -5.20001,-48.59999 -23.30002,-64zm-359.59999,259.5c0,0.39999 -0.3,0.70001 -0.7,0.70001l-77.8,0c-0.4,0 -0.7,-0.30002 -0.7,-0.70001l0,-228.39999c0,-0.39999 0.3,-0.7 0.7,-0.7l77.9,0c0.4,0 0.7,0.3 0.7,0.7l0,228.39999l-0.10001,0zm359.00002,-199.29999l-26.79999,167.19998c0,0.10001 0,0.30002 -0.10001,0.5c-3.70001,29.90002 -22.70001,45.10001 -56.60001,45.10001l-135.10001,0l-6.8,0l-65.90001,0c-21.29999,0 -39.79999,-15.89999 -43.09998,-36.89999c-0.1,-0.70001 -0.3,-1.39999 -0.5,-2.10001l0,-191.59999l5.2,-1.2c0.2,0 0.29999,-0.10001 0.5,-0.10001c1,-0.3 24.7,-7 48.59999,-24c32.7,-23.20001 49.90001,-54.3 49.90001,-89.90001l0,-75.3c10.39999,-1.7 28.2,-2.6 41.09999,7c11.79999,8.7 17.79999,25.2 17.79999,49l0,87.8c0,6.59999 5.39999,12 12,12l44.39999,0l56.90002,0l15.79999,0c9.90002,0 19.80002,3.7 27.70001,10.5c11.79999,10.10001 17.59998,26.20001 15,42.00002z"/>
  </g>
 </g>
</svg>